<svg xmlns="http://www.w3.org/2000/svg" xmlns:xlink="http://www.w3.org/1999/xlink" width="750" zoomAndPan="magnify" viewBox="0 0 562.5 562.499982" height="750" preserveAspectRatio="xMidYMid meet" version="1.0"><path fill="#d58034" d="M 375.398438 0 L 377.59375 2.195312 L 407.230469 180.015625 L 408.328125 185.503906 L 429.183594 190.992188 L 446.746094 197.578125 L 464.308594 206.359375 L 480.773438 216.238281 L 492.847656 226.117188 L 503.824219 235.996094 L 515.898438 248.070312 L 526.875 262.339844 L 538.949219 282.097656 L 548.828125 302.953125 L 555.414062 323.808594 L 559.804688 345.761719 L 560.902344 355.640625 L 560.902344 388.570312 L 557.609375 410.523438 L 551.023438 433.574219 L 541.144531 456.625 L 530.167969 475.285156 L 519.191406 489.554688 L 509.3125 500.53125 L 502.726562 508.214844 L 493.945312 515.898438 L 475.285156 530.167969 L 454.429688 542.242188 L 433.574219 551.023438 L 416.011719 556.511719 L 392.960938 560.902344 L 380.886719 562 L 362.226562 562 L 335.882812 558.707031 L 310.636719 552.121094 L 287.585938 542.242188 L 271.121094 533.460938 L 252.460938 520.289062 L 238.191406 507.117188 L 226.117188 495.042969 L 215.140625 480.773438 L 206.359375 466.503906 L 197.578125 450.039062 L 193.1875 439.0625 L 193.1875 436.867188 L 37.320312 453.332031 L 35.125 450.039062 L 1.097656 49.394531 L 1.097656 40.613281 L 90.007812 30.734375 Z M 375.398438 0 " fill-opacity="1" fill-rule="nonzero"/><path fill="#f1cf43" d="M 356.738281 182.210938 L 388.570312 182.210938 L 413.816406 186.601562 L 435.769531 193.1875 L 458.820312 203.066406 L 477.480469 214.042969 L 491.75 225.019531 L 504.921875 237.09375 L 515.898438 248.070312 L 526.875 262.339844 L 538.949219 282.097656 L 548.828125 302.953125 L 555.414062 323.808594 L 559.804688 345.761719 L 560.902344 355.640625 L 560.902344 388.570312 L 557.609375 410.523438 L 551.023438 433.574219 L 541.144531 456.625 L 530.167969 475.285156 L 519.191406 489.554688 L 509.3125 500.53125 L 502.726562 508.214844 L 493.945312 515.898438 L 475.285156 530.167969 L 454.429688 542.242188 L 433.574219 551.023438 L 416.011719 556.511719 L 392.960938 560.902344 L 380.886719 562 L 362.226562 562 L 335.882812 558.707031 L 310.636719 552.121094 L 287.585938 542.242188 L 271.121094 533.460938 L 252.460938 520.289062 L 238.191406 507.117188 L 226.117188 495.042969 L 215.140625 480.773438 L 206.359375 466.503906 L 197.578125 450.039062 L 190.992188 432.476562 L 185.503906 413.816406 L 182.210938 395.15625 L 182.210938 352.347656 L 185.503906 333.6875 L 192.089844 312.832031 L 200.871094 293.074219 L 211.847656 274.414062 L 226.117188 255.753906 L 238.191406 242.582031 L 245.875 234.898438 L 257.949219 225.019531 L 274.414062 212.945312 L 291.976562 203.066406 L 307.34375 195.382812 L 326.003906 188.796875 L 350.152344 183.308594 Z M 356.738281 182.210938 " fill-opacity="1" fill-rule="nonzero"/><path fill="#ede8db" d="M 356.738281 182.210938 L 388.570312 182.210938 L 413.816406 186.601562 L 435.769531 193.1875 L 458.820312 203.066406 L 477.480469 214.042969 L 491.75 225.019531 L 504.921875 237.09375 L 515.898438 248.070312 L 526.875 262.339844 L 538.949219 282.097656 L 548.828125 302.953125 L 555.414062 323.808594 L 559.804688 345.761719 L 560.902344 355.640625 L 560.902344 388.570312 L 557.609375 410.523438 L 551.023438 433.574219 L 541.144531 456.625 L 530.167969 475.285156 L 519.191406 489.554688 L 509.3125 500.53125 L 502.726562 508.214844 L 493.945312 515.898438 L 475.285156 530.167969 L 454.429688 542.242188 L 433.574219 551.023438 L 416.011719 556.511719 L 392.960938 560.902344 L 380.886719 562 L 362.226562 562 L 335.882812 558.707031 L 310.636719 552.121094 L 287.585938 542.242188 L 271.121094 533.460938 L 252.460938 520.289062 L 238.191406 507.117188 L 226.117188 495.042969 L 215.140625 480.773438 L 206.359375 466.503906 L 197.578125 450.039062 L 190.992188 432.476562 L 185.503906 413.816406 L 182.210938 395.15625 L 182.210938 352.347656 L 185.503906 333.6875 L 192.089844 312.832031 L 200.871094 293.074219 L 211.847656 274.414062 L 226.117188 255.753906 L 238.191406 242.582031 L 245.875 234.898438 L 257.949219 225.019531 L 274.414062 212.945312 L 291.976562 203.066406 L 307.34375 195.382812 L 326.003906 188.796875 L 350.152344 183.308594 Z M 361.128906 219.53125 L 343.566406 221.726562 L 320.515625 228.3125 L 302.953125 235.996094 L 286.488281 245.875 L 271.121094 257.949219 L 256.851562 272.21875 L 245.875 286.488281 L 235.996094 304.050781 L 229.410156 318.320312 L 223.921875 335.882812 L 221.726562 345.761719 L 220.628906 356.738281 L 220.628906 394.058594 L 225.019531 421.5 L 228.3125 433.574219 L 233.800781 446.746094 L 241.484375 462.113281 L 251.363281 476.382812 L 264.535156 490.652344 L 279.902344 502.726562 L 290.878906 509.3125 L 311.734375 518.09375 L 328.199219 522.484375 L 336.980469 524.679688 L 356.738281 526.875 L 383.082031 526.875 L 397.351562 525.777344 L 416.011719 521.386719 L 436.867188 513.703125 L 454.429688 504.921875 L 469.796875 493.945312 L 482.96875 481.871094 L 491.75 473.089844 L 503.824219 456.625 L 515.898438 433.574219 L 522.484375 412.71875 L 526.875 392.960938 L 526.875 353.445312 L 523.582031 332.589844 L 518.09375 311.734375 L 506.019531 286.488281 L 492.847656 268.925781 L 487.359375 262.339844 L 478.578125 254.65625 L 464.308594 243.679688 L 443.453125 232.703125 L 425.890625 226.117188 L 406.132812 221.726562 L 389.667969 219.53125 Z M 361.128906 219.53125 " fill-opacity="1" fill-rule="nonzero"/><path fill="#f1ce43" d="M 361.128906 219.53125 L 389.667969 219.53125 L 417.109375 223.921875 L 434.671875 229.410156 L 452.234375 237.09375 L 467.601562 245.875 L 479.675781 255.753906 L 487.359375 262.339844 L 497.238281 274.414062 L 507.117188 288.683594 L 518.09375 311.734375 L 523.582031 332.589844 L 526.875 353.445312 L 526.875 392.960938 L 522.484375 412.71875 L 519.191406 423.695312 L 514.800781 424.792969 L 433.574219 399.546875 L 429.183594 398.449219 L 432.476562 388.570312 L 433.574219 383.082031 L 433.574219 360.03125 L 428.085938 345.761719 L 420.402344 333.6875 L 411.621094 324.90625 L 398.449219 317.222656 L 388.570312 313.929688 L 380.886719 312.832031 L 366.617188 312.832031 L 354.542969 316.125 L 340.273438 323.808594 L 327.101562 335.882812 L 319.417969 347.957031 L 309.539062 344.664062 L 239.289062 319.417969 L 231.605469 316.125 L 232.703125 310.636719 L 243.679688 289.78125 L 253.558594 276.609375 L 265.632812 263.4375 L 273.316406 255.753906 L 289.78125 243.679688 L 307.34375 233.800781 L 327.101562 226.117188 L 343.566406 221.726562 Z M 361.128906 219.53125 " fill-opacity="1" fill-rule="nonzero"/><path fill="#f2d444" d="M 277.707031 61.46875 L 279.902344 61.46875 L 298.5625 96.59375 L 309.539062 116.351562 L 309.539062 119.644531 L 277.707031 133.914062 L 243.679688 149.28125 L 245.875 160.257812 L 253.558594 188.796875 L 261.242188 215.140625 L 262.339844 222.824219 L 250.265625 232.703125 L 237.09375 244.777344 L 225.019531 257.949219 L 210.75 277.707031 L 197.578125 301.855469 L 190.992188 318.320312 L 186.601562 333.6875 L 184.40625 347.957031 L 183.308594 350.152344 L 166.84375 349.054688 L 149.28125 343.566406 L 137.207031 336.980469 L 126.230469 328.199219 L 118.546875 320.515625 L 109.765625 306.246094 L 105.375 294.171875 L 105.375 270.023438 L 108.667969 257.949219 L 117.449219 240.386719 L 127.328125 228.3125 L 137.207031 219.53125 L 150.378906 211.847656 L 167.941406 206.359375 L 189.894531 206.359375 L 207.457031 210.75 L 222.824219 218.433594 L 234.898438 228.3125 L 228.3125 209.652344 L 214.042969 172.332031 L 204.164062 145.988281 L 186.601562 99.886719 L 187.699219 95.496094 L 225.019531 81.226562 Z M 277.707031 61.46875 " fill-opacity="1" fill-rule="nonzero"/><path fill="#efeadd" d="M 366.617188 311.734375 L 380.886719 311.734375 L 392.960938 313.929688 L 408.328125 321.613281 L 419.304688 331.492188 L 426.988281 341.371094 L 432.476562 353.445312 L 434.671875 360.03125 L 434.671875 383.082031 L 431.378906 392.960938 L 425.890625 403.9375 L 418.207031 413.816406 L 410.523438 421.5 L 396.253906 430.28125 L 383.082031 434.671875 L 363.324219 434.671875 L 349.054688 430.28125 L 338.078125 423.695312 L 327.101562 413.816406 L 319.417969 402.839844 L 313.929688 388.570312 L 312.832031 384.179688 L 312.832031 361.128906 L 317.222656 349.054688 L 327.101562 334.785156 L 335.882812 326.003906 L 347.957031 318.320312 L 356.738281 313.929688 Z M 366.617188 311.734375 " fill-opacity="1" fill-rule="nonzero"/><path fill="#b66624" d="M 50.492188 324.90625 L 58.175781 331.492188 L 74.640625 349.054688 L 92.203125 366.617188 L 99.886719 375.398438 L 119.644531 395.15625 L 127.328125 403.9375 L 133.914062 411.621094 L 131.71875 412.71875 L 97.691406 416.011719 L 61.46875 420.402344 L 53.785156 420.402344 L 50.492188 351.25 Z M 141.597656 88.910156 L 143.792969 88.910156 L 152.574219 108.667969 L 151.476562 111.960938 L 120.742188 118.546875 L 80.128906 127.328125 L 48.296875 133.914062 L 46.101562 133.914062 L 42.808594 117.449219 L 42.808594 111.960938 L 50.492188 109.765625 L 82.324219 102.082031 L 113.058594 95.496094 Z M 155.867188 126.230469 L 158.0625 126.230469 L 166.84375 143.792969 L 165.746094 147.085938 L 125.132812 156.964844 L 105.375 162.453125 L 55.980469 174.527344 L 53.785156 174.527344 L 50.492188 159.160156 L 50.492188 154.769531 L 63.664062 150.378906 L 94.398438 142.695312 L 109.765625 138.304688 L 131.71875 132.816406 L 150.378906 127.328125 Z M 155.867188 126.230469 " fill-opacity="1" fill-rule="nonzero"/><path fill="#d68035" d="M 367.714844 350.152344 L 379.789062 351.25 L 389.667969 357.835938 L 395.15625 366.617188 L 395.15625 377.59375 L 389.667969 386.375 L 379.789062 392.960938 L 368.8125 394.058594 L 360.03125 390.765625 L 353.445312 385.277344 L 350.152344 377.59375 L 350.152344 366.617188 L 353.445312 360.03125 L 358.933594 354.542969 Z M 367.714844 350.152344 " fill-opacity="1" fill-rule="nonzero"/></svg>