<svg xmlns="http://www.w3.org/2000/svg" xmlns:xlink="http://www.w3.org/1999/xlink" width="750" zoomAndPan="magnify" viewBox="0 0 562.5 562.499982" height="750" preserveAspectRatio="xMidYMid meet" version="1.0"><path fill="#576a74" d="M 252.460938 0 L 282.097656 0 L 310.636719 3.292969 L 335.882812 8.78125 L 362.226562 17.5625 L 388.570312 29.636719 L 411.621094 43.90625 L 429.183594 57.078125 L 444.550781 70.25 L 457.722656 83.421875 L 467.601562 95.496094 L 478.578125 109.765625 L 489.554688 127.328125 L 502.726562 152.574219 L 511.507812 175.625 L 516.996094 194.285156 L 521.386719 216.238281 L 523.582031 233.800781 L 524.679688 253.558594 L 537.851562 250.265625 L 546.632812 250.265625 L 549.925781 253.558594 L 551.023438 256.851562 L 551.023438 468.699219 L 548.828125 477.480469 L 543.339844 488.457031 L 533.460938 499.433594 L 522.484375 507.117188 L 509.3125 513.703125 L 492.847656 518.09375 L 474.1875 518.09375 L 462.113281 513.703125 L 454.429688 508.214844 L 448.941406 497.238281 L 448.941406 486.261719 L 453.332031 475.285156 L 459.917969 465.40625 L 470.894531 455.527344 L 481.871094 448.941406 L 495.042969 443.453125 L 502.726562 441.257812 L 520.289062 440.160156 L 520.289062 335.882812 L 511.507812 338.078125 L 502.726562 360.03125 L 493.945312 378.691406 L 481.871094 398.449219 L 468.699219 416.011719 L 456.625 430.28125 L 437.964844 448.941406 L 425.890625 458.820312 L 409.425781 470.894531 L 387.472656 484.066406 L 386.375 487.359375 L 386.375 510.410156 L 384.179688 521.386719 L 379.789062 530.167969 L 369.910156 541.144531 L 361.128906 548.828125 L 343.566406 557.609375 L 331.492188 560.902344 L 315.027344 562 L 302.953125 559.804688 L 293.074219 554.316406 L 286.488281 546.632812 L 284.292969 540.046875 L 284.292969 530.167969 L 288.683594 518.09375 L 293.074219 511.507812 L 288.683594 512.605469 L 250.265625 512.605469 L 223.921875 509.3125 L 195.382812 502.726562 L 173.429688 495.042969 L 151.476562 485.164062 L 133.914062 475.285156 L 120.742188 466.503906 L 103.179688 453.332031 L 85.617188 436.867188 L 77.933594 429.183594 L 68.054688 417.109375 L 57.078125 402.839844 L 46.101562 385.277344 L 32.929688 360.03125 L 23.050781 333.6875 L 16.464844 308.441406 L 13.171875 287.585938 L 12.074219 277.707031 L 12.074219 234.898438 L 15.367188 209.652344 L 23.050781 178.917969 L 31.832031 155.867188 L 42.808594 132.816406 L 55.980469 111.960938 L 65.859375 98.789062 L 75.738281 86.714844 L 90.007812 71.347656 L 98.789062 63.664062 L 111.960938 52.6875 L 130.621094 39.515625 L 150.378906 28.539062 L 171.234375 18.660156 L 200.871094 8.78125 L 226.117188 3.292969 Z M 260.144531 196.480469 L 243.679688 200.871094 L 232.703125 207.457031 L 221.726562 217.335938 L 215.140625 227.214844 L 209.652344 239.289062 L 207.457031 253.558594 L 208.554688 268.925781 L 212.945312 282.097656 L 220.628906 294.171875 L 231.605469 305.148438 L 242.582031 311.734375 L 256.851562 316.125 L 278.804688 316.125 L 295.269531 310.636719 L 306.246094 302.953125 L 316.125 293.074219 L 323.808594 279.902344 L 327.101562 268.925781 L 328.199219 252.460938 L 326.003906 239.289062 L 321.613281 228.3125 L 312.832031 216.238281 L 301.855469 206.359375 L 288.683594 199.773438 L 275.511719 196.480469 Z M 260.144531 196.480469 " fill-opacity="1" fill-rule="nonzero"/><path fill="#fd636e" d="M 537.851562 250.265625 L 546.632812 250.265625 L 549.925781 253.558594 L 551.023438 256.851562 L 551.023438 468.699219 L 548.828125 477.480469 L 543.339844 488.457031 L 533.460938 499.433594 L 522.484375 507.117188 L 509.3125 513.703125 L 492.847656 518.09375 L 474.1875 518.09375 L 462.113281 513.703125 L 454.429688 508.214844 L 448.941406 497.238281 L 448.941406 486.261719 L 453.332031 475.285156 L 459.917969 465.40625 L 470.894531 455.527344 L 481.871094 448.941406 L 495.042969 443.453125 L 502.726562 441.257812 L 520.289062 440.160156 L 520.289062 335.882812 L 511.507812 338.078125 L 502.726562 360.03125 L 493.945312 378.691406 L 481.871094 398.449219 L 468.699219 416.011719 L 456.625 430.28125 L 437.964844 448.941406 L 425.890625 458.820312 L 409.425781 470.894531 L 387.472656 484.066406 L 386.375 487.359375 L 386.375 510.410156 L 384.179688 521.386719 L 379.789062 530.167969 L 369.910156 541.144531 L 361.128906 548.828125 L 343.566406 557.609375 L 331.492188 560.902344 L 315.027344 562 L 302.953125 559.804688 L 293.074219 554.316406 L 286.488281 546.632812 L 284.292969 540.046875 L 284.292969 530.167969 L 288.683594 518.09375 L 296.367188 507.117188 L 306.246094 498.335938 L 323.808594 488.457031 L 338.078125 484.066406 L 355.640625 484.066406 L 355.640625 298.5625 L 360.03125 294.171875 L 389.667969 286.488281 L 418.207031 279.902344 L 452.234375 271.121094 L 480.773438 264.535156 L 519.191406 254.65625 Z M 537.851562 250.265625 " fill-opacity="1" fill-rule="nonzero"/><path fill="#384949" d="M 253.558594 129.523438 L 282.097656 129.523438 L 297.464844 131.71875 L 317.222656 138.304688 L 338.078125 149.28125 L 349.054688 158.0625 L 360.03125 167.941406 L 368.8125 177.820312 L 379.789062 194.285156 L 387.472656 210.75 L 392.960938 229.410156 L 395.15625 243.679688 L 395.15625 267.828125 L 392.960938 284.292969 L 389.667969 287.585938 L 360.03125 295.269531 L 356.738281 298.5625 L 355.640625 300.757812 L 354.542969 350.152344 L 344.664062 358.933594 L 329.296875 368.8125 L 312.832031 376.496094 L 294.171875 381.984375 L 274.414062 384.179688 L 261.242188 384.179688 L 241.484375 381.984375 L 222.824219 376.496094 L 204.164062 367.714844 L 185.503906 354.542969 L 169.039062 338.078125 L 156.964844 320.515625 L 148.183594 301.855469 L 142.695312 283.195312 L 140.5 271.121094 L 140.5 241.484375 L 144.890625 220.628906 L 151.476562 203.066406 L 161.355469 185.503906 L 173.429688 170.136719 L 183.308594 160.257812 L 199.773438 148.183594 L 218.433594 138.304688 L 240.386719 131.71875 Z M 260.144531 196.480469 L 243.679688 200.871094 L 232.703125 207.457031 L 221.726562 217.335938 L 215.140625 227.214844 L 209.652344 239.289062 L 207.457031 253.558594 L 208.554688 268.925781 L 212.945312 282.097656 L 220.628906 294.171875 L 231.605469 305.148438 L 242.582031 311.734375 L 256.851562 316.125 L 278.804688 316.125 L 295.269531 310.636719 L 306.246094 302.953125 L 316.125 293.074219 L 323.808594 279.902344 L 327.101562 268.925781 L 328.199219 252.460938 L 326.003906 239.289062 L 321.613281 228.3125 L 312.832031 216.238281 L 301.855469 206.359375 L 288.683594 199.773438 L 275.511719 196.480469 Z M 260.144531 196.480469 " fill-opacity="1" fill-rule="nonzero"/><path fill="#fc4755" d="M 537.851562 250.265625 L 546.632812 250.265625 L 549.925781 253.558594 L 551.023438 256.851562 L 551.023438 468.699219 L 548.828125 477.480469 L 543.339844 488.457031 L 533.460938 499.433594 L 522.484375 507.117188 L 509.3125 513.703125 L 492.847656 518.09375 L 474.1875 518.09375 L 462.113281 513.703125 L 454.429688 508.214844 L 448.941406 497.238281 L 448.941406 486.261719 L 453.332031 475.285156 L 459.917969 465.40625 L 470.894531 455.527344 L 481.871094 448.941406 L 495.042969 443.453125 L 502.726562 441.257812 L 520.289062 440.160156 L 519.191406 254.65625 Z M 537.851562 250.265625 " fill-opacity="1" fill-rule="nonzero"/><path fill="#455960" d="M 507.117188 338.078125 L 510.410156 338.078125 L 509.3125 344.664062 L 497.238281 372.105469 L 486.261719 391.863281 L 473.089844 410.523438 L 463.210938 422.597656 L 453.332031 433.574219 L 437.964844 448.941406 L 425.890625 458.820312 L 409.425781 470.894531 L 387.472656 484.066406 L 386.375 484.066406 L 386.375 367.714844 L 414.914062 361.128906 Z M 507.117188 338.078125 " fill-opacity="1" fill-rule="nonzero"/><path fill="#596b75" d="M 457.722656 350.152344 L 463.210938 350.152344 L 456.625 366.617188 L 445.648438 387.472656 L 432.476562 407.230469 L 420.402344 422.597656 L 405.035156 439.0625 L 396.253906 447.84375 L 388.570312 454.429688 L 386.375 454.429688 L 386.375 367.714844 L 414.914062 361.128906 Z M 457.722656 350.152344 " fill-opacity="1" fill-rule="nonzero"/><path fill="#fd636e" d="M 511.507812 440.160156 L 520.289062 440.160156 L 520.289062 465.40625 L 518.09375 477.480469 L 512.605469 488.457031 L 503.824219 498.335938 L 489.554688 508.214844 L 475.285156 514.800781 L 470.894531 514.800781 L 469.796875 516.996094 L 456.625 510.410156 L 450.039062 500.53125 L 448.941406 497.238281 L 448.941406 486.261719 L 453.332031 475.285156 L 459.917969 465.40625 L 470.894531 455.527344 L 481.871094 448.941406 L 495.042969 443.453125 L 502.726562 441.257812 Z M 511.507812 440.160156 " fill-opacity="1" fill-rule="nonzero"/></svg>